0
SECTION
2
HEADER
9
$INSUNITS
70
4
9
$ACADVER
1
AC1014
9
$HANDSEED
5
FFFF
0
ENDSEC
0
SECTION
2
TABLES
0
TABLE
2
VPORT
5
8
100
AcDbSymbolTable
0
ENDTAB
0
TABLE
2
LTYPE
5
5
100
AcDbSymbolTable
0
LTYPE
5
14
100
AcDbSymbolTableRecord
100
AcDbLinetypeTableRecord
2
BYBLOCK
70
0
0
LTYPE
5
15
100
AcDbSymbolTableRecord
100
AcDbLinetypeTableRecord
2
BYLAYER
70
0
0
ENDTAB
0
TABLE
2
LAYER
5
2
100
AcDbSymbolTable
70
2
0
LAYER
5
50
100
AcDbSymbolTableRecord
100
AcDbLayerTableRecord
2
0
70
0
6
CONTINUOUS
0
ENDTAB
0
TABLE
2
STYLE
5
3
100
AcDbSymbolTable
70
1
0
STYLE
5
11
100
AcDbSymbolTableRecord
100
AcDbTextStyleTableRecord
2
STANDARD
70
0
0
ENDTAB
0
TABLE
2
VIEW
5
6
100
AcDbSymbolTable
70
0
0
ENDTAB
0
TABLE
2
UCS
5
7
100
AcDbSymbolTable
70
0
0
ENDTAB
0
TABLE
2
APPID
5
9
100
AcDbSymbolTable
70
2
0
APPID
5
12
100
AcDbSymbolTableRecord
100
AcDbRegAppTableRecord
2
ACAD
70
0
0
ENDTAB
0
TABLE
2
DIMSTYLE
5
A
100
AcDbSymbolTable
70
1
0
ENDTAB
0
TABLE
2
BLOCK_RECORD
5
1
100
AcDbSymbolTable
70
1
0
BLOCK_RECORD
5
1F
100
AcDbSymbolTableRecord
100
AcDbBlockTableRecord
2
*MODEL_SPACE
0
BLOCK_RECORD
5
1B
100
AcDbSymbolTableRecord
100
AcDbBlockTableRecord
2
*PAPER_SPACE
0
ENDTAB
0
ENDSEC
0
SECTION
2
BLOCKS
0
BLOCK
5
20
100
AcDbEntity
100
AcDbBlockBegin
2
*MODEL_SPACE
0
ENDBLK
5
21
100
AcDbEntity
100
AcDbBlockEnd
0
BLOCK
5
1C
100
AcDbEntity
100
AcDbBlockBegin
2
*PAPER_SPACE
0
ENDBLK
5
1D
100
AcDbEntity
100
AcDbBlockEnd
0
ENDSEC
0
SECTION
2
ENTITIES
0
LINE
5
100
100
AcDbEntity
8
0
100
AcDbLine
10
0
20
0
30
0
11
-52
21
0
31
0
0
LINE
5
101
100
AcDbEntity
8
0
100
AcDbLine
10
-52
20
-92.000000000000014
30
0
11
0
21
-92.000000000000014
31
0
0
LWPOLYLINE
5
102
100
AcDbEntity
8
0
100
AcDbPolyline
90
4
70
1
43
0.0
10
-61
20
-20.600000000000005
10
-53
20
-20.600000000000005
10
-53
20
-71.400000000000006
10
-61
20
-71.400000000000006
0
LINE
5
103
100
AcDbEntity
8
0
100
AcDbLine
10
-52
20
0
30
0
11
-51.000000000000007
21
0
31
0
0
LINE
5
104
100
AcDbEntity
8
0
100
AcDbLine
10
-1.0000000000000042
20
-92.000000000000014
30
0
11
-51.000000000000014
21
-92.000000000000014
31
0
0
LINE
5
105
100
AcDbEntity
8
0
100
AcDbLine
10
-64.700000000000003
20
-73
30
0
11
-64.700000000000003
21
-20.000000000000007
31
0
0
LINE
5
106
100
AcDbEntity
8
0
100
AcDbLine
10
-62.699999999999974
20
-75.000000000000043
30
0
11
-57.999999999999972
21
-75.000000000000014
31
0
0
LINE
5
107
100
AcDbEntity
8
0
100
AcDbLine
10
-55
20
-77.999999999999986
30
0
11
-55.000000000000007
21
-89.700000000000003
31
0
0
ARC
5
108
100
AcDbEntity
8
0
100
AcDbCircle
10
-57.999999999999972
20
-77.999999999999986
30
0
40
2.9999999999999716
210
-0
220
0
230
1
100
AcDbArc
50
0
51
90
0
ARC
5
109
100
AcDbEntity
8
0
100
AcDbCircle
10
-62.699999999999974
20
-73
30
0
40
2.0000000000000195
210
0
220
0
230
1
100
AcDbArc
50
180
51
270
0
LINE
5
110
100
AcDbEntity
8
0
100
AcDbLine
10
-52
20
0
30
0
11
-52.999999999999986
21
-6.1232339957367032e-17
31
0
0
LINE
5
111
100
AcDbEntity
8
0
100
AcDbLine
10
-61.700000000000003
20
-17.000000000000004
30
0
11
-58
21
-17
31
0
0
LINE
5
112
100
AcDbEntity
8
0
100
AcDbLine
10
-55
20
-14.000000000000002
30
0
11
-54.999999999999993
21
-2.0000000000000009
31
0
0
ARC
5
113
100
AcDbEntity
8
0
100
AcDbCircle
10
-52.999999999999986
20
-2.0000000000000004
30
0
40
2.0000000000000004
210
0
220
-0
230
1
100
AcDbArc
50
90
51
180
0
ARC
5
114
100
AcDbEntity
8
0
100
AcDbCircle
10
-58.000000000000007
20
-14
30
0
40
3.0000000000000027
210
0
220
0
230
1
100
AcDbArc
50
270.00000000000011
51
360
0
ARC
5
115
100
AcDbEntity
8
0
100
AcDbCircle
10
-61.699999999999989
20
-20.000000000000007
30
0
40
3.0000000000000049
210
0
220
0
230
1
100
AcDbArc
50
90.00000000000027
51
180
0
LINE
5
116
100
AcDbEntity
8
0
100
AcDbLine
10
-55.000000000000007
20
-89.700000000000003
30
0
11
-55.000000000000007
21
-89.998079594615973
31
0
0
LINE
5
117
100
AcDbEntity
8
0
100
AcDbLine
10
-52.990484045393025
20
-91.998056952240148
30
0
11
-52
21
-92.000000000000014
31
0
0
ARC
5
118
100
AcDbEntity
8
0
100
AcDbCircle
10
-53.000000000000007
20
-89.998079594615973
30
0
40
2.0000000000000018
210
0
220
0
230
1
100
AcDbArc
50
180
51
270.27261304763203
0
LINE
5
119
100
AcDbEntity
8
0
100
AcDbLine
10
9.6999999999999975
20
-17.000000000000011
30
0
11
5.9999999999999964
21
-17.000000000000007
31
0
0
ARC
5
120
100
AcDbEntity
8
0
100
AcDbCircle
10
0.99999999999998757
20
-2.0000000000000058
30
0
40
2.0000000000000018
210
-0
220
0
230
1
100
AcDbArc
50
0
51
90
0
LWPOLYLINE
5
121
100
AcDbEntity
8
0
100
AcDbPolyline
90
4
70
1
43
0.0
10
8.9999999999999769
20
-71.40000000000002
10
8.9999999999999947
20
-20.600000000000016
10
0.99999999999999645
20
-20.600000000000009
10
0.99999999999997868
20
-71.40000000000002
0
ARC
5
122
100
AcDbEntity
8
0
100
AcDbCircle
10
9.6999999999999886
20
-20.000000000000018
30
0
40
3.0000000000000071
210
0
220
0
230
1
100
AcDbArc
50
0
51
89.999999999999844
0
LINE
5
123
100
AcDbEntity
8
0
100
AcDbLine
10
0.99048404539300527
20
-91.998056952240148
30
0
11
-1.7763568394002505e-14
21
-92.000000000000014
31
0
0
ARC
5
124
100
AcDbEntity
8
0
100
AcDbCircle
10
0.99999999999998757
20
-89.998079594615973
30
0
40
1.9999999961003683
210
0
220
0
230
1
100
AcDbArc
50
-90.272613047632049
51
0
0
ARC
5
125
100
AcDbEntity
8
0
100
AcDbCircle
10
10.699999999999958
20
-73.000000000000014
30
0
40
2.0000000000000373
210
0
220
0
230
1
100
AcDbArc
50
-90
51
0
0
ARC
5
126
100
AcDbEntity
8
0
100
AcDbCircle
10
6.0000000000000053
20
-14.000000000000005
30
0
40
3.0000000000000071
210
0
220
0
230
1
100
AcDbArc
50
180
51
269.99999999999983
0
LINE
5
127
100
AcDbEntity
8
0
100
AcDbLine
10
10.699999999999958
20
-75.000000000000057
30
0
11
5.999999999999952
21
-75.000000000000014
31
0
0
ARC
5
128
100
AcDbEntity
8
0
100
AcDbCircle
10
5.999999999999952
20
-77.999999999999986
30
0
40
2.9999999999999716
210
-0
220
0
230
1
100
AcDbArc
50
90
51
180
0
LINE
5
129
100
AcDbEntity
8
0
100
AcDbLine
10
2.9999999999999982
20
-14.000000000000007
30
0
11
2.9999999999999893
21
-2.0000000000000067
31
0
0
LINE
5
130
100
AcDbEntity
8
0
100
AcDbLine
10
0
20
-5.020138893957229e-15
30
0
11
-0.99999999999999645
21
-4.8270566288050286e-15
31
0
0
LINE
5
131
100
AcDbEntity
8
0
100
AcDbLine
10
2.9999999999999805
20
-77.999999999999986
30
0
11
2.9999999999999893
21
-89.700000000000003
31
0
0
LINE
5
132
100
AcDbEntity
8
0
100
AcDbLine
10
12.699999999999978
20
-73.000000000000014
30
0
11
12.699999999999996
21
-20.000000000000018
31
0
0
LINE
5
133
100
AcDbEntity
8
0
100
AcDbLine
10
0
20
-5.020138893957229e-15
30
0
11
0.99999999999998757
21
-5.2744534990667938e-15
31
0
0
LINE
5
134
100
AcDbEntity
8
0
100
AcDbLine
10
2.9999999999999893
20
-89.700000000000003
30
0
11
2.9999999999999893
21
-89.998079594615973
31
0
0
ENDSEC
0
SECTION
2
OBJECTS
0
DICTIONARY
5
C
100
AcDbDictionary
3
ACAD_GROUP
350
D
3
ACAD_MLINESTYLE
350
17
0
DICTIONARY
5
D
100
AcDbDictionary
0
DICTIONARY
5
1A
330
C
100
AcDbDictionary
0
DICTIONARY
5
17
100
AcDbDictionary
0
ENDSEC
0
EOF
