0
SECTION
2
HEADER
9
$INSUNITS
70
4
9
$ACADVER
1
AC1014
9
$HANDSEED
5
FFFF
0
ENDSEC
0
SECTION
2
TABLES
0
TABLE
2
VPORT
5
8
100
AcDbSymbolTable
0
ENDTAB
0
TABLE
2
LTYPE
5
5
100
AcDbSymbolTable
0
LTYPE
5
14
100
AcDbSymbolTableRecord
100
AcDbLinetypeTableRecord
2
BYBLOCK
70
0
0
LTYPE
5
15
100
AcDbSymbolTableRecord
100
AcDbLinetypeTableRecord
2
BYLAYER
70
0
0
ENDTAB
0
TABLE
2
LAYER
5
2
100
AcDbSymbolTable
70
2
0
LAYER
5
50
100
AcDbSymbolTableRecord
100
AcDbLayerTableRecord
2
0
70
0
6
CONTINUOUS
0
ENDTAB
0
TABLE
2
STYLE
5
3
100
AcDbSymbolTable
70
1
0
STYLE
5
11
100
AcDbSymbolTableRecord
100
AcDbTextStyleTableRecord
2
STANDARD
70
0
0
ENDTAB
0
TABLE
2
VIEW
5
6
100
AcDbSymbolTable
70
0
0
ENDTAB
0
TABLE
2
UCS
5
7
100
AcDbSymbolTable
70
0
0
ENDTAB
0
TABLE
2
APPID
5
9
100
AcDbSymbolTable
70
2
0
APPID
5
12
100
AcDbSymbolTableRecord
100
AcDbRegAppTableRecord
2
ACAD
70
0
0
ENDTAB
0
TABLE
2
DIMSTYLE
5
A
100
AcDbSymbolTable
70
1
0
ENDTAB
0
TABLE
2
BLOCK_RECORD
5
1
100
AcDbSymbolTable
70
1
0
BLOCK_RECORD
5
1F
100
AcDbSymbolTableRecord
100
AcDbBlockTableRecord
2
*MODEL_SPACE
0
BLOCK_RECORD
5
1B
100
AcDbSymbolTableRecord
100
AcDbBlockTableRecord
2
*PAPER_SPACE
0
ENDTAB
0
ENDSEC
0
SECTION
2
BLOCKS
0
BLOCK
5
20
100
AcDbEntity
100
AcDbBlockBegin
2
*MODEL_SPACE
0
ENDBLK
5
21
100
AcDbEntity
100
AcDbBlockEnd
0
BLOCK
5
1C
100
AcDbEntity
100
AcDbBlockBegin
2
*PAPER_SPACE
0
ENDBLK
5
1D
100
AcDbEntity
100
AcDbBlockEnd
0
ENDSEC
0
SECTION
2
ENTITIES
0
LWPOLYLINE
5
100
100
AcDbEntity
8
0
100
AcDbPolyline
90
16
70
1
43
0.0
10
6.0114402965977298
20
88.182053205498633
10
49.900633031039391
20
88.182053205498633
42
-0.28135380009030631
10
54.349970308341057
20
85.463148949393144
10
61.905373941120217
20
70.726135337246006
42
-0.11899232957905444
10
62.456036663818551
20
68.445039593351481
10
62.456036663818566
20
19.562393092997571
42
-0.11643382146585356
10
61.928172618818138
20
17.326325115497781
10
54.338002675068644
20
2.1459852279988287
42
-0.28407904384041205
10
49.865866720069079
20
-0.61794679450137169
10
6.2520871822666999
20
-0.6179467945013728
42
-0.28550071867875465
10
1.8036273972431538
20
2.5698578065136202
10
-5.9933006134830968
20
17.777971073751253
42
-0.11899232957905274
10
-6.5439633361814309
20
20.059066817645792
10
-6.5439633361814309
20
68.445039593351467
42
-0.11899232957905444
10
-5.9933006134830968
20
70.726135337246006
10
1.5621030192960628
20
85.463148949393144
42
-0.28135380009030631
0
LWPOLYLINE
5
101
100
AcDbEntity
8
0
100
AcDbPolyline
90
4
70
1
43
0.0
10
52.956036663818544
20
69.182053205498619
10
52.956036663818551
20
18.382053205498618
10
58.956036663818551
20
18.382053205498625
10
58.956036663818551
20
69.182053205498619
0
LINE
5
102
100
AcDbEntity
8
0
100
AcDbLine
10
49.865866720069079
20
-0.61794679450137169
30
0
11
6.2520871822666999
21
-0.61794679450137169
31
0
0
LINE
5
103
100
AcDbEntity
8
0
100
AcDbLine
10
52.956036663818551
20
18.382053205498618
30
0
11
52.956036663818544
21
69.182053205498619
31
0
0
LINE
5
104
100
AcDbEntity
8
0
100
AcDbLine
10
58.956036663818558
20
69.652053205498632
30
0
11
58.956036663818551
21
18.382053205498629
31
0
0
LWPOLYLINE
5
105
100
AcDbEntity
8
0
100
AcDbPolyline
90
6
70
1
43
0.0
10
-3.0439633361814344
20
18.852053205498635
10
2.4560366638185327
20
18.852053205498621
10
2.4560366638185416
20
69.652053205498632
10
2.4560366638185327
20
18.852053205498621
10
2.4560366638185416
20
69.652053205498632
10
-3.0439633361814344
20
69.652053205498632
0
LINE
5
106
100
AcDbEntity
8
0
100
AcDbLine
10
49.900633031039391
20
88.182053205498633
30
0
11
6.0114402965977298
21
88.182053205498633
31
0
0
LINE
5
107
100
AcDbEntity
8
0
100
AcDbLine
10
-3.0439633361814344
20
69.652053205498632
30
0
11
-3.0439633361814344
21
18.852053205498635
31
0
0
ENDSEC
0
SECTION
2
OBJECTS
0
DICTIONARY
5
C
100
AcDbDictionary
3
ACAD_GROUP
350
D
3
ACAD_MLINESTYLE
350
17
0
DICTIONARY
5
D
100
AcDbDictionary
0
DICTIONARY
5
1A
330
C
100
AcDbDictionary
0
DICTIONARY
5
17
100
AcDbDictionary
0
ENDSEC
0
EOF
